<svg width="259" height="59" viewBox="0 0 259 59" fill="none" xmlns="http://www.w3.org/2000/svg">
<path d="M0.544 46V1.2H14.944C19.424 1.2 23.2853 2.032 26.528 3.696C29.8133 5.36 32.3307 7.856 34.08 11.184C35.872 14.512 36.768 18.6507 36.768 23.6C36.768 28.5067 35.872 32.624 34.08 35.952C32.3307 39.28 29.8133 41.7973 26.528 43.504C23.2853 45.168 19.424 46 14.944 46H0.544ZM7.904 39.152H14.368C18.976 39.152 22.56 37.8293 25.12 35.184C27.7227 32.496 29.024 28.6347 29.024 23.6C29.024 18.5227 27.7227 14.6613 25.12 12.016C22.56 9.37066 18.976 8.048 14.368 8.048H7.904V39.152ZM43.9905 46V15.216H51.1585V46H43.9905ZM47.5105 10.16C46.2732 10.16 45.2065 9.712 44.3105 8.816C43.4145 7.92 42.9665 6.85333 42.9665 5.616C42.9665 4.37866 43.4145 3.312 44.3105 2.416C45.2065 1.52 46.2732 1.072 47.5105 1.072C48.7478 1.072 49.8145 1.52 50.7105 2.416C51.6065 3.312 52.0545 4.37866 52.0545 5.616C52.0545 6.85333 51.6065 7.92 50.7105 8.816C49.8145 9.712 48.7478 10.16 47.5105 10.16ZM73.0895 46.704C70.2735 46.704 67.7348 46.0427 65.4735 44.72C63.2548 43.3547 61.4842 41.4773 60.1615 39.088C58.8815 36.656 58.2415 33.8187 58.2415 30.576C58.2415 27.3333 58.8815 24.5173 60.1615 22.128C61.4842 19.696 63.2548 17.8187 65.4735 16.496C67.7348 15.1307 70.2735 14.448 73.0895 14.448C75.6068 14.448 77.8895 14.96 79.9375 15.984C82.0282 17.008 83.7348 18.48 85.0575 20.4L79.2975 24.624C77.9748 22.192 75.9055 20.976 73.0895 20.976C70.8708 20.976 69.0575 21.808 67.6495 23.472C66.2415 25.136 65.5375 27.504 65.5375 30.576C65.5375 33.648 66.2415 36.016 67.6495 37.68C69.0575 39.344 70.8708 40.176 73.0895 40.176C75.8628 40.176 77.9535 38.9813 79.3615 36.592L85.0575 40.752C83.7348 42.6293 82.0282 44.1013 79.9375 45.168C77.8895 46.192 75.6068 46.704 73.0895 46.704ZM103.469 46.704C98.989 46.704 95.3623 45.36 92.589 42.672C89.8157 39.9413 88.429 35.9093 88.429 30.576C88.429 27.248 89.0477 24.3893 90.285 22C91.5223 19.568 93.2503 17.712 95.469 16.432C97.6877 15.1093 100.226 14.448 103.085 14.448C105.944 14.448 108.376 15.152 110.381 16.56C112.386 17.9253 113.922 19.8027 114.989 22.192C116.056 24.5813 116.589 27.2693 116.589 30.256V31.92H95.533C95.7037 34.992 96.5143 37.1893 97.965 38.512C99.4157 39.792 101.293 40.432 103.597 40.432C105.602 40.432 107.245 39.9627 108.525 39.024C109.805 38.0427 110.914 36.592 111.853 34.672L117.165 38.384C115.586 41.328 113.645 43.4613 111.341 44.784C109.08 46.064 106.456 46.704 103.469 46.704ZM95.853 26.352H109.485C109.144 24.3467 108.397 22.8107 107.245 21.744C106.136 20.6347 104.706 20.08 102.957 20.08C101.08 20.08 99.5223 20.592 98.285 21.616C97.0903 22.64 96.2797 24.2187 95.853 26.352ZM140.236 46.896C136.481 46.896 133.025 46.1067 129.868 44.528C126.753 42.9493 124.257 40.2827 122.38 36.528L128.588 33.008C129.868 35.1413 131.425 36.8267 133.26 38.064C135.095 39.2587 137.505 39.856 140.492 39.856C143.479 39.856 145.569 39.3227 146.764 38.256C148.001 37.1467 148.62 35.6533 148.62 33.776C148.62 32.5813 148.343 31.5573 147.788 30.704C147.276 29.8507 146.167 29.0613 144.46 28.336C142.796 27.568 140.215 26.8 136.716 26.032C132.577 25.0507 129.505 23.4933 127.5 21.36C125.537 19.2267 124.556 16.5173 124.556 13.232C124.556 10.6293 125.175 8.34667 126.412 6.384C127.692 4.37867 129.463 2.82133 131.724 1.712C134.028 0.602664 136.716 0.0479965 139.788 0.0479965C143.841 0.0479965 147.255 0.943996 150.028 2.736C152.801 4.48533 154.913 6.55466 156.364 8.944L150.54 13.424C149.815 12.4 148.961 11.4187 147.98 10.48C146.999 9.49867 145.847 8.70933 144.524 8.112C143.201 7.472 141.601 7.152 139.724 7.152C137.505 7.152 135.692 7.64266 134.284 8.624C132.919 9.56266 132.236 10.992 132.236 12.912C132.236 13.7653 132.428 14.5973 132.812 15.408C133.239 16.176 134.135 16.9227 135.5 17.648C136.908 18.3733 139.063 19.0773 141.964 19.76C147.084 20.912 150.775 22.64 153.036 24.944C155.297 27.248 156.428 30.1493 156.428 33.648C156.428 37.9147 154.935 41.2 151.948 43.504C149.004 45.7653 145.1 46.896 140.236 46.896ZM163.342 58.608V15.216H169.614L169.998 18.608C172.174 15.8347 175.032 14.448 178.574 14.448C181.432 14.448 183.971 15.088 186.19 16.368C188.451 17.648 190.222 19.504 191.502 21.936C192.782 24.3253 193.422 27.2053 193.422 30.576C193.422 33.9467 192.782 36.848 191.502 39.28C190.222 41.6693 188.451 43.504 186.19 44.784C183.971 46.064 181.432 46.704 178.574 46.704C176.995 46.704 175.523 46.4053 174.158 45.808C172.792 45.168 171.598 44.2933 170.574 43.184V58.608H163.342ZM178.318 40.176C180.579 40.176 182.456 39.344 183.95 37.68C185.443 36.016 186.19 33.648 186.19 30.576C186.19 27.504 185.443 25.136 183.95 23.472C182.456 21.808 180.579 20.976 178.318 20.976C176.056 20.976 174.179 21.808 172.686 23.472C171.192 25.136 170.446 27.504 170.446 30.576C170.446 33.648 171.192 36.016 172.686 37.68C174.179 39.344 176.056 40.176 178.318 40.176ZM213.094 46.704C208.614 46.704 204.987 45.36 202.214 42.672C199.441 39.9413 198.054 35.9093 198.054 30.576C198.054 27.248 198.673 24.3893 199.91 22C201.147 19.568 202.875 17.712 205.094 16.432C207.313 15.1093 209.851 14.448 212.71 14.448C215.569 14.448 218.001 15.152 220.006 16.56C222.011 17.9253 223.547 19.8027 224.614 22.192C225.681 24.5813 226.214 27.2693 226.214 30.256V31.92H205.158C205.329 34.992 206.139 37.1893 207.59 38.512C209.041 39.792 210.918 40.432 213.222 40.432C215.227 40.432 216.87 39.9627 218.15 39.024C219.43 38.0427 220.539 36.592 221.478 34.672L226.79 38.384C225.211 41.328 223.27 43.4613 220.966 44.784C218.705 46.064 216.081 46.704 213.094 46.704ZM205.478 26.352H219.11C218.769 24.3467 218.022 22.8107 216.87 21.744C215.761 20.6347 214.331 20.08 212.582 20.08C210.705 20.08 209.147 20.592 207.91 21.616C206.715 22.64 205.905 24.2187 205.478 26.352ZM246.277 46.704C243.461 46.704 240.922 46.0427 238.661 44.72C236.442 43.3547 234.672 41.4773 233.349 39.088C232.069 36.656 231.429 33.8187 231.429 30.576C231.429 27.3333 232.069 24.5173 233.349 22.128C234.672 19.696 236.442 17.8187 238.661 16.496C240.922 15.1307 243.461 14.448 246.277 14.448C248.794 14.448 251.077 14.96 253.125 15.984C255.216 17.008 256.922 18.48 258.245 20.4L252.485 24.624C251.162 22.192 249.093 20.976 246.277 20.976C244.058 20.976 242.245 21.808 240.837 23.472C239.429 25.136 238.725 27.504 238.725 30.576C238.725 33.648 239.429 36.016 240.837 37.68C242.245 39.344 244.058 40.176 246.277 40.176C249.05 40.176 251.141 38.9813 252.549 36.592L258.245 40.752C256.922 42.6293 255.216 44.1013 253.125 45.168C251.077 46.192 248.794 46.704 246.277 46.704Z" fill="currentColor"/>
</svg>
