<svg viewBox="0 0 432 60" fill="none" xmlns="http://www.w3.org/2000/svg">
<path d="M8.064 59.776C7.50933 58.9227 6.67733 57.856 5.568 56.576C4.50133 55.3387 3.456 54.3147 2.432 53.504C6.86933 51.7547 10.9653 49.6 14.72 47.04C18.5173 44.48 21.9093 41.6 24.896 38.4C21.696 35.968 18.752 34.1547 16.064 32.96C16.4907 32.576 17.024 32.0213 17.664 31.296C18.3467 30.528 19.008 29.76 19.648 28.992C20.288 28.224 20.7573 27.6053 21.056 27.136C23.744 28.3307 26.6667 30.0373 29.824 32.256C32.384 28.5867 34.4107 24.8107 35.904 20.928H20.096C18.1333 23.9147 16.0427 26.7093 13.824 29.312C11.6053 31.9147 9.25867 34.2827 6.784 36.416C5.97333 35.648 4.94933 34.8373 3.712 33.984C2.47467 33.088 1.28 32.3627 0.128 31.808C2.90133 29.632 5.54667 27.0293 8.064 24C10.624 20.9707 12.9067 17.7493 14.912 14.336C16.96 10.9227 18.624 7.57333 19.904 4.288C20.4587 4.45867 21.2693 4.71466 22.336 5.056C23.4027 5.35466 24.4693 5.65333 25.536 5.952C26.6453 6.208 27.4773 6.37866 28.032 6.464C27.4347 7.78666 26.816 9.10933 26.176 10.432C25.536 11.712 24.8747 12.9707 24.192 14.208C25.4293 14.208 26.944 14.208 28.736 14.208C30.5707 14.208 32.448 14.208 34.368 14.208C36.3307 14.1653 38.1227 14.1227 39.744 14.08C41.408 13.9947 42.688 13.9093 43.584 13.824C44.0533 14.2507 44.6293 14.7627 45.312 15.36C45.9947 15.9573 46.5493 16.4907 46.976 16.96C46.6773 17.5147 46.272 18.2827 45.76 19.264C45.248 20.2027 44.7147 21.2053 44.16 22.272C43.6053 23.296 43.136 24.256 42.752 25.152C40.8747 29.248 38.6347 33.1733 36.032 36.928C38.7627 39.1467 41.088 41.2373 43.008 43.2C42.5813 43.584 41.9413 44.1813 41.088 44.992C40.2773 45.76 39.4667 46.5707 38.656 47.424C37.8453 48.2347 37.2053 48.896 36.736 49.408C36.0533 48.4693 35.2 47.488 34.176 46.464C33.152 45.44 32.064 44.3947 30.912 43.328C27.8827 46.656 24.4693 49.7067 20.672 52.48C16.8747 55.2107 12.672 57.6427 8.064 59.776ZM49.472 15.744C49.3867 15.6587 49.088 15.36 48.576 14.848C48.1067 14.2933 47.5307 13.6533 46.848 12.928C46.208 12.16 45.5467 11.4133 44.864 10.688C44.224 9.96267 43.6693 9.344 43.2 8.832C42.7307 8.32 42.4533 8.02133 42.368 7.936L45.504 5.184C45.632 5.312 46.0373 5.76 46.72 6.528C47.4027 7.25333 48.1707 8.10666 49.024 9.088C49.92 10.0267 50.7093 10.88 51.392 11.648C52.0747 12.3733 52.48 12.8 52.608 12.928L49.472 15.744ZM55.232 11.328C55.1467 11.2 54.7413 10.752 54.016 9.984C53.3333 9.216 52.544 8.36266 51.648 7.424C50.7947 6.44266 50.0267 5.58933 49.344 4.864C48.6613 4.096 48.256 3.648 48.128 3.52L51.328 0.767998C51.4133 0.895999 51.7973 1.344 52.48 2.112C53.2053 2.88 53.9947 3.75466 54.848 4.736C55.744 5.67466 56.5333 6.528 57.216 7.296C57.8987 8.02133 58.304 8.448 58.432 8.576L55.232 11.328ZM87.872 58.752C87.9147 57.9413 87.936 56.6827 87.936 54.976C87.9787 53.2693 88 51.2853 88 49.024C88.0427 46.72 88.064 44.288 88.064 41.728C88.1067 39.168 88.128 36.6293 88.128 34.112C88.128 31.5947 88.128 29.248 88.128 27.072C84.928 29.4613 81.7493 31.68 78.592 33.728C75.4347 35.776 72.4267 37.5253 69.568 38.976C69.184 38.5067 68.5653 37.888 67.712 37.12C66.8587 36.3093 65.984 35.52 65.088 34.752C64.2347 33.984 63.5733 33.408 63.104 33.024C66.56 31.488 70.1227 29.568 73.792 27.264C77.504 24.96 81.1093 22.4853 84.608 19.84C88.1493 17.152 91.4133 14.464 94.4 11.776C97.4293 9.088 99.9893 6.57067 102.08 4.224C102.592 4.65067 103.275 5.184 104.128 5.824C104.981 6.464 105.856 7.08266 106.752 7.68C107.691 8.27733 108.437 8.74666 108.992 9.088C105.237 12.9707 100.885 16.96 95.936 21.056C95.936 23.2747 95.9573 25.856 96 28.8C96.0427 31.744 96.0853 34.7947 96.128 37.952C96.1707 41.0667 96.192 44.0533 96.192 46.912C96.2347 49.7707 96.2773 52.2453 96.32 54.336C96.3627 56.4267 96.384 57.8987 96.384 58.752H87.872ZM131.328 57.088C130.603 56.192 129.664 55.1467 128.512 53.952C127.403 52.7573 126.336 51.776 125.312 51.008C128.981 49.216 132.544 47.0613 136 44.544C139.499 41.984 142.741 39.232 145.728 36.288C148.715 33.3013 151.339 30.2293 153.6 27.072C155.904 23.872 157.717 20.736 159.04 17.664C157.973 17.664 156.48 17.6853 154.56 17.728C152.683 17.7707 150.571 17.8347 148.224 17.92C145.877 17.9627 143.531 18.0267 141.184 18.112C138.837 18.1973 136.683 18.2827 134.72 18.368C132.757 18.4533 131.221 18.5387 130.112 18.624C130.112 17.984 130.069 17.152 129.984 16.128C129.941 15.104 129.899 14.0587 129.856 12.992C129.813 11.8827 129.792 10.9867 129.792 10.304C131.072 10.3467 132.715 10.3893 134.72 10.432C136.725 10.4747 138.944 10.496 141.376 10.496C143.851 10.496 146.347 10.496 148.864 10.496C151.424 10.4533 153.877 10.4107 156.224 10.368C158.571 10.2827 160.64 10.1973 162.432 10.112C164.224 10.0267 165.589 9.92 166.528 9.792C166.784 10.048 167.125 10.4107 167.552 10.88C168.021 11.3067 168.491 11.7333 168.96 12.16C169.429 12.5867 169.771 12.9067 169.984 13.12C169.472 13.8027 168.981 14.6347 168.512 15.616C168.085 16.5973 167.701 17.5147 167.36 18.368C166.208 20.9707 164.907 23.5093 163.456 25.984C162.005 28.416 160.405 30.8053 158.656 33.152C160.021 34.0907 161.621 35.264 163.456 36.672C165.291 38.08 167.168 39.5733 169.088 41.152C171.008 42.688 172.8 44.2027 174.464 45.696C176.128 47.1467 177.472 48.4267 178.496 49.536C177.984 49.92 177.28 50.5173 176.384 51.328C175.531 52.096 174.677 52.8853 173.824 53.696C173.013 54.464 172.416 55.0613 172.032 55.488C171.136 54.464 169.92 53.2053 168.384 51.712C166.848 50.2187 165.184 48.6827 163.392 47.104C161.643 45.5253 159.915 44.032 158.208 42.624C156.501 41.1733 155.008 40 153.728 39.104C150.528 42.6027 147.029 45.888 143.232 48.96C139.477 51.9893 135.509 54.6987 131.328 57.088ZM195.328 57.088C194.603 56.192 193.664 55.1467 192.512 53.952C191.403 52.7573 190.336 51.776 189.312 51.008C192.981 49.216 196.544 47.0613 200 44.544C203.499 41.984 206.741 39.232 209.728 36.288C212.715 33.3013 215.339 30.2293 217.6 27.072C219.904 23.872 221.717 20.736 223.04 17.664C221.973 17.664 220.48 17.6853 218.56 17.728C216.683 17.7707 214.571 17.8347 212.224 17.92C209.877 17.9627 207.531 18.0267 205.184 18.112C202.837 18.1973 200.683 18.2827 198.72 18.368C196.757 18.4533 195.221 18.5387 194.112 18.624C194.112 17.984 194.069 17.152 193.984 16.128C193.941 15.104 193.899 14.0587 193.856 12.992C193.813 11.8827 193.792 10.9867 193.792 10.304C195.072 10.3467 196.715 10.3893 198.72 10.432C200.725 10.4747 202.944 10.496 205.376 10.496C207.851 10.496 210.347 10.496 212.864 10.496C215.424 10.4533 217.877 10.4107 220.224 10.368C222.571 10.2827 224.64 10.1973 226.432 10.112C228.224 10.0267 229.589 9.92 230.528 9.792C230.784 10.048 231.125 10.4107 231.552 10.88C232.021 11.3067 232.491 11.7333 232.96 12.16C233.429 12.5867 233.771 12.9067 233.984 13.12C233.472 13.8027 232.981 14.6347 232.512 15.616C232.085 16.5973 231.701 17.5147 231.36 18.368C230.208 20.9707 228.907 23.5093 227.456 25.984C226.005 28.416 224.405 30.8053 222.656 33.152C224.021 34.0907 225.621 35.264 227.456 36.672C229.291 38.08 231.168 39.5733 233.088 41.152C235.008 42.688 236.8 44.2027 238.464 45.696C240.128 47.1467 241.472 48.4267 242.496 49.536C241.984 49.92 241.28 50.5173 240.384 51.328C239.531 52.096 238.677 52.8853 237.824 53.696C237.013 54.464 236.416 55.0613 236.032 55.488C235.136 54.464 233.92 53.2053 232.384 51.712C230.848 50.2187 229.184 48.6827 227.392 47.104C225.643 45.5253 223.915 44.032 222.208 42.624C220.501 41.1733 219.008 40 217.728 39.104C214.528 42.6027 211.029 45.888 207.232 48.96C203.477 51.9893 199.509 54.6987 195.328 57.088ZM304.832 46.08C303.893 45.4827 302.549 44.6293 300.8 43.52C299.093 42.4107 297.173 41.152 295.04 39.744C292.907 38.2933 290.709 36.8213 288.448 35.328C286.229 33.8347 284.117 32.4053 282.112 31.04C280.107 29.632 278.357 28.416 276.864 27.392C275.413 26.3253 274.389 25.5787 273.792 25.152C273.109 24.64 272.597 24.4053 272.256 24.448C271.915 24.448 271.445 24.6827 270.848 25.152C270.592 25.3653 270.059 25.856 269.248 26.624C268.437 27.3493 267.456 28.224 266.304 29.248C265.195 30.2293 264.043 31.2747 262.848 32.384C261.696 33.4507 260.608 34.4533 259.584 35.392C258.603 36.3307 257.835 37.0773 257.28 37.632C256.768 37.0773 256.107 36.416 255.296 35.648C254.485 34.8373 253.653 34.048 252.8 33.28C251.989 32.512 251.285 31.9147 250.688 31.488C251.285 31.104 252.224 30.4213 253.504 29.44C254.827 28.4587 256.277 27.3493 257.856 26.112C259.477 24.8747 261.056 23.6373 262.592 22.4C264.171 21.1627 265.536 20.096 266.688 19.2C267.84 18.2613 268.587 17.6427 268.928 17.344C270.165 16.2773 271.253 15.7227 272.192 15.68C273.173 15.6373 274.389 16.1707 275.84 17.28C276.48 17.7493 277.568 18.5173 279.104 19.584C280.64 20.608 282.475 21.824 284.608 23.232C286.741 24.5973 288.981 26.048 291.328 27.584C293.717 29.12 296.064 30.6133 298.368 32.064C300.715 33.5147 302.869 34.8373 304.832 36.032C306.795 37.184 308.395 38.1013 309.632 38.784C309.163 39.3387 308.608 40.064 307.968 40.96C307.371 41.856 306.773 42.7733 306.176 43.712C305.621 44.6507 305.173 45.44 304.832 46.08ZM293.056 17.28C291.221 17.28 289.664 16.64 288.384 15.36C287.104 14.08 286.464 12.5227 286.464 10.688C286.464 8.85333 287.104 7.296 288.384 6.016C289.664 4.736 291.221 4.096 293.056 4.096C294.891 4.096 296.448 4.736 297.728 6.016C299.008 7.296 299.648 8.85333 299.648 10.688C299.648 12.5227 299.008 14.08 297.728 15.36C296.448 16.64 294.891 17.28 293.056 17.28ZM293.056 14.4C294.08 14.4 294.955 14.0373 295.68 13.312C296.405 12.5867 296.768 11.712 296.768 10.688C296.768 9.664 296.405 8.78933 295.68 8.064C294.955 7.33867 294.08 6.976 293.056 6.976C292.032 6.976 291.157 7.33867 290.432 8.064C289.707 8.78933 289.344 9.664 289.344 10.688C289.344 11.712 289.707 12.5867 290.432 13.312C291.157 14.0373 292.032 14.4 293.056 14.4ZM337.664 59.456C337.365 59.0293 336.875 58.4747 336.192 57.792C335.552 57.1093 334.891 56.448 334.208 55.808C333.525 55.168 332.949 54.6773 332.48 54.336C339.221 52.032 344.277 48.7893 347.648 44.608C351.019 40.4267 353.173 35.072 354.112 28.544C354.283 27.392 354.453 26.1547 354.624 24.832C354.837 23.5093 354.965 22.5493 355.008 21.952C355.563 22.08 356.309 22.2507 357.248 22.464C358.187 22.6347 359.125 22.784 360.064 22.912C361.003 23.04 361.707 23.1253 362.176 23.168C362.005 23.7653 361.792 24.6187 361.536 25.728C361.323 26.7947 361.109 27.8827 360.896 28.992C359.957 34.368 358.485 38.976 356.48 42.816C354.517 46.656 351.979 49.92 348.864 52.608C345.749 55.2533 342.016 57.536 337.664 59.456ZM328.832 37.376C328.619 36.224 328.299 34.9227 327.872 33.472C327.488 31.9787 327.04 30.5067 326.528 29.056C326.016 27.5627 325.461 26.2187 324.864 25.024C325.803 24.8107 326.933 24.512 328.256 24.128C329.579 23.744 330.645 23.4453 331.456 23.232C331.925 24.1707 332.395 25.408 332.864 26.944C333.376 28.48 333.824 30.0587 334.208 31.68C334.635 33.2587 334.955 34.6667 335.168 35.904C334.272 36.1173 333.184 36.352 331.904 36.608C330.624 36.864 329.6 37.12 328.832 37.376ZM340.992 34.944C340.821 33.024 340.501 30.912 340.032 28.608C339.605 26.304 339.072 24.2773 338.432 22.528C338.987 22.4427 339.691 22.336 340.544 22.208C341.397 22.0373 342.251 21.8667 343.104 21.696C344 21.4827 344.683 21.3333 345.152 21.248C345.536 22.3147 345.899 23.616 346.24 25.152C346.581 26.6453 346.88 28.16 347.136 29.696C347.435 31.232 347.627 32.5973 347.712 33.792C347.2 33.8347 346.496 33.9413 345.6 34.112C344.747 34.2827 343.893 34.4533 343.04 34.624C342.229 34.752 341.547 34.8587 340.992 34.944ZM395.072 59.2C394.688 58.7733 394.069 58.176 393.216 57.408C392.363 56.64 391.467 55.8507 390.528 55.04C389.589 54.2293 388.8 53.6107 388.16 53.184C391.744 51.648 395.157 49.728 398.4 47.424C401.685 45.12 404.715 42.56 407.488 39.744C410.304 36.8853 412.8 33.92 414.976 30.848C417.152 27.776 418.944 24.7253 420.352 21.696H404.224C401.963 24.8107 399.552 27.7547 396.992 30.528C394.475 33.2587 391.957 35.648 389.44 37.696C388.629 36.928 387.605 36.0533 386.368 35.072C385.131 34.0907 384.085 33.3227 383.232 32.768C385.323 31.2747 387.456 29.4613 389.632 27.328C391.808 25.152 393.899 22.8053 395.904 20.288C397.952 17.728 399.787 15.104 401.408 12.416C403.072 9.728 404.416 7.12533 405.44 4.608C406.08 4.864 406.869 5.16266 407.808 5.504C408.747 5.84533 409.685 6.18666 410.624 6.528C411.563 6.82666 412.331 7.04 412.928 7.168C411.691 9.856 410.283 12.4587 408.704 14.976C410.368 14.976 412.203 14.976 414.208 14.976C416.256 14.976 418.261 14.9547 420.224 14.912C422.187 14.8693 423.893 14.8267 425.344 14.784C426.795 14.7413 427.755 14.6773 428.224 14.592C428.437 14.8053 428.779 15.1467 429.248 15.616C429.717 16.0427 430.165 16.448 430.592 16.832C431.061 17.216 431.36 17.4933 431.488 17.664C430.976 18.3467 430.336 19.3707 429.568 20.736C428.843 22.1013 428.117 23.5733 427.392 25.152C425.899 28.4373 424 31.7227 421.696 35.008C419.392 38.2933 416.811 41.4507 413.952 44.48C411.093 47.5093 408.064 50.2827 404.864 52.8C401.664 55.3173 398.4 57.4507 395.072 59.2Z" fill="currentColor"/>
</svg>
